<mxfile host="app.diagrams.net" agent="Mozilla/5.0 (Windows NT 10.0; Win64; x64) AppleWebKit/537.36 (KHTML, like Gecko) Chrome/122.0.0.0 Safari/537.36" version="24.7.12">
  <diagram name="Trang-1" id="jxcmGP2y9GPnpdlfBqwR">
    <mxGraphModel dx="1050" dy="557" grid="1" gridSize="10" guides="1" tooltips="1" connect="1" arrows="1" fold="1" page="1" pageScale="1" pageWidth="827" pageHeight="1169" math="0" shadow="0">
      <root>
        <mxCell id="0" />
        <mxCell id="1" parent="0" />
        <mxCell id="aOe9jzkHa4A-o0o59dJh-1" value="Khách hàng" style="shape=umlActor;verticalLabelPosition=bottom;verticalAlign=top;html=1;outlineConnect=0;" parent="1" vertex="1">
          <mxGeometry x="50" y="110" width="30" height="60" as="geometry" />
        </mxCell>
        <mxCell id="aOe9jzkHa4A-o0o59dJh-2" value="Chọn món ăn" style="ellipse;whiteSpace=wrap;html=1;" parent="1" vertex="1">
          <mxGeometry x="330" y="70" width="120" height="60" as="geometry" />
        </mxCell>
        <mxCell id="aOe9jzkHa4A-o0o59dJh-3" value="" style="endArrow=classic;html=1;rounded=0;exitX=1;exitY=0.3333333333333333;exitDx=0;exitDy=0;exitPerimeter=0;entryX=0;entryY=0.5;entryDx=0;entryDy=0;" parent="1" target="aOe9jzkHa4A-o0o59dJh-2" edge="1">
          <mxGeometry width="50" height="50" relative="1" as="geometry">
            <mxPoint x="260" y="130" as="sourcePoint" />
            <mxPoint x="340" y="290" as="targetPoint" />
          </mxGeometry>
        </mxCell>
        <mxCell id="aOe9jzkHa4A-o0o59dJh-5" value="" style="endArrow=classic;html=1;rounded=0;exitX=1;exitY=0.3333333333333333;exitDx=0;exitDy=0;exitPerimeter=0;" parent="1" edge="1">
          <mxGeometry width="50" height="50" relative="1" as="geometry">
            <mxPoint x="260" y="130" as="sourcePoint" />
            <mxPoint x="330" y="180" as="targetPoint" />
          </mxGeometry>
        </mxCell>
        <mxCell id="aOe9jzkHa4A-o0o59dJh-6" value="Chọn địa chỉ giao hàng" style="ellipse;whiteSpace=wrap;html=1;" parent="1" vertex="1">
          <mxGeometry x="330" y="150" width="120" height="60" as="geometry" />
        </mxCell>
        <mxCell id="aOe9jzkHa4A-o0o59dJh-7" value="Include" style="endArrow=open;endSize=12;dashed=1;html=1;rounded=0;entryX=1;entryY=0.5;entryDx=0;entryDy=0;" parent="1" target="aOe9jzkHa4A-o0o59dJh-2" edge="1">
          <mxGeometry width="160" relative="1" as="geometry">
            <mxPoint x="540" y="140" as="sourcePoint" />
            <mxPoint x="710" y="150" as="targetPoint" />
          </mxGeometry>
        </mxCell>
        <mxCell id="aOe9jzkHa4A-o0o59dJh-8" value="Thanh toán" style="ellipse;whiteSpace=wrap;html=1;" parent="1" vertex="1">
          <mxGeometry x="544" y="120" width="120" height="60" as="geometry" />
        </mxCell>
        <mxCell id="aOe9jzkHa4A-o0o59dJh-9" value="extend" style="endArrow=open;endSize=12;dashed=1;html=1;rounded=0;entryX=0.97;entryY=0.39;entryDx=0;entryDy=0;entryPerimeter=0;exitX=0.333;exitY=0.997;exitDx=0;exitDy=0;exitPerimeter=0;" parent="1" source="aOe9jzkHa4A-o0o59dJh-12" target="aOe9jzkHa4A-o0o59dJh-8" edge="1">
          <mxGeometry width="160" relative="1" as="geometry">
            <mxPoint x="730" y="110" as="sourcePoint" />
            <mxPoint x="780" y="170" as="targetPoint" />
          </mxGeometry>
        </mxCell>
        <mxCell id="aOe9jzkHa4A-o0o59dJh-10" value="extend" style="endArrow=open;endSize=12;dashed=1;html=1;rounded=0;entryX=0.977;entryY=0.63;entryDx=0;entryDy=0;exitX=0.35;exitY=-0.023;exitDx=0;exitDy=0;exitPerimeter=0;entryPerimeter=0;" parent="1" source="aOe9jzkHa4A-o0o59dJh-13" target="aOe9jzkHa4A-o0o59dJh-8" edge="1">
          <mxGeometry width="160" relative="1" as="geometry">
            <mxPoint x="730" y="180" as="sourcePoint" />
            <mxPoint x="670" y="153" as="targetPoint" />
          </mxGeometry>
        </mxCell>
        <mxCell id="aOe9jzkHa4A-o0o59dJh-12" value="Thanh toán trực tuyến" style="ellipse;whiteSpace=wrap;html=1;" parent="1" vertex="1">
          <mxGeometry x="650" y="30" width="120" height="60" as="geometry" />
        </mxCell>
        <mxCell id="aOe9jzkHa4A-o0o59dJh-13" value="Thanh toán trực tiếp" style="ellipse;whiteSpace=wrap;html=1;" parent="1" vertex="1">
          <mxGeometry x="664" y="200" width="120" height="60" as="geometry" />
        </mxCell>
        <mxCell id="aOe9jzkHa4A-o0o59dJh-16" value="" style="endArrow=classic;html=1;rounded=0;exitX=1;exitY=0.5;exitDx=0;exitDy=0;" parent="1" source="aOe9jzkHa4A-o0o59dJh-8" edge="1">
          <mxGeometry width="50" height="50" relative="1" as="geometry">
            <mxPoint x="680" y="149" as="sourcePoint" />
            <mxPoint x="810" y="149" as="targetPoint" />
          </mxGeometry>
        </mxCell>
        <mxCell id="aOe9jzkHa4A-o0o59dJh-17" value="Đặt hàng" style="ellipse;whiteSpace=wrap;html=1;" parent="1" vertex="1">
          <mxGeometry x="810" y="120" width="120" height="60" as="geometry" />
        </mxCell>
        <mxCell id="dwXrt2vbNh38FpKDv-MU-1" value="" style="endArrow=classic;html=1;rounded=0;exitX=1;exitY=0.3333333333333333;exitDx=0;exitDy=0;exitPerimeter=0;" edge="1" parent="1" source="aOe9jzkHa4A-o0o59dJh-1">
          <mxGeometry width="50" height="50" relative="1" as="geometry">
            <mxPoint x="220" y="140" as="sourcePoint" />
            <mxPoint x="140" y="130" as="targetPoint" />
          </mxGeometry>
        </mxCell>
        <mxCell id="dwXrt2vbNh38FpKDv-MU-3" value="Xem menu" style="ellipse;whiteSpace=wrap;html=1;" vertex="1" parent="1">
          <mxGeometry x="140" y="100" width="120" height="60" as="geometry" />
        </mxCell>
      </root>
    </mxGraphModel>
  </diagram>
</mxfile>
